<?xml version="1.0" standalone="no"?>
<!DOCTYPE svg PUBLIC "-//W3C//DTD SVG 20010904//EN"
 "http://www.w3.org/TR/2001/REC-SVG-20010904/DTD/svg10.dtd">
<svg version="1.0" xmlns="http://www.w3.org/2000/svg"
 width="127.000000pt" height="127.000000pt" viewBox="0 0 127.000000 127.000000"
 preserveAspectRatio="xMidYMid meet">

<g transform="translate(0.000000,127.000000) scale(0.100000,-0.100000)"
fill="#000000" stroke="none">
<path d="M562 1258 c-139 -15 -261 -76 -367 -182 -117 -119 -176 -259 -177
-426 -3 -357 265 -630 619 -630 111 0 190 18 282 65 210 106 341 319 341 555
0 111 -21 194 -72 292 -118 227 -365 355 -626 326z m153 -447 c111 -50 145
-182 74 -281 -73 -101 -211 -104 -296 -7 -79 90 -47 226 67 285 53 27 101 28
155 3z m-324 -248 c20 -64 64 -117 121 -148 46 -26 63 -30 128 -30 58 0 85 6
116 22 53 28 109 93 127 147 l14 41 146 3 147 3 0 -28 c-1 -97 -69 -233 -165
-328 -169 -168 -412 -209 -627 -106 -106 51 -205 147 -256 247 -21 41 -62 175
-62 201 0 10 35 13 149 13 l149 0 13 -37z"/>
</g>
</svg>
